<svg width="24" height="24" viewBox="0 0 24 24" fill="none" xmlns="http://www.w3.org/2000/svg">
<g clip-path="url(#clip0_1338_4909)">
<path d="M11.9999 22C17.5227 22 21.9999 17.5228 21.9999 12C21.9999 6.47715 17.5227 2 11.9999 2C6.47703 2 1.99988 6.47715 1.99988 12C1.99988 17.5228 6.47703 22 11.9999 22Z" fill="#F3BA2C"/>
<path d="M16.2782 14.7665L16.2768 14.7672L11.9875 19.0571L7.69892 14.7686L7.69684 14.7665L9.27615 13.1913L11.9875 15.902L14.6995 13.1899L16.2782 14.7665Z" fill="white"/>
<path d="M16.2747 9.34172L14.6975 10.919L11.9854 8.20692L9.27407 10.9176L7.69684 9.34034L11.9854 5.05176L16.2747 9.34172Z" fill="white"/>
<path d="M17.412 10.4934L15.8345 12.0708L17.412 13.6482L18.9894 12.0708L17.412 10.4934Z" fill="white"/>
<path d="M6.62906 10.4934L5.05164 12.0708L6.62906 13.6482L8.20649 12.0708L6.62906 10.4934Z" fill="white"/>
<path d="M13.5422 12.0441H13.5429L11.9421 10.4434L10.7596 11.6259L10.6239 11.7616L10.3434 12.0421L10.3414 12.0441L10.3434 12.0462L11.9428 13.6456L13.5436 12.0448L13.5443 12.0441H13.5422Z" fill="white"/>
</g>
<defs>
<clipPath id="clip0_1338_4909">
<rect width="24" height="24" fill="white"/>
</clipPath>
</defs>
</svg>
