<svg width="24" height="24" viewBox="0 0 24 24" fill="none" xmlns="http://www.w3.org/2000/svg">
<path d="M21.7007 14.419C20.365 19.7762 14.9384 23.0365 9.57993 21.7006C4.22374 20.365 0.963087 14.9387 2.2994 9.58197C3.63453 4.22419 9.06112 0.963662 14.4179 2.29923C19.7759 3.63481 23.0364 9.06171 21.7005 14.4191L21.7006 14.419H21.7007Z" fill="#F7931A"/>
<path d="M16.424 10.5606C16.623 9.22985 15.6098 8.5145 14.2242 8.0373L14.6737 6.23464L13.5762 5.96121L13.1387 7.71641C12.8501 7.64446 12.5538 7.57666 12.2594 7.50945L12.7001 5.74267L11.6033 5.46924L11.1536 7.27131C10.9148 7.21696 10.6803 7.16324 10.4528 7.10664L10.4541 7.10097L8.94069 6.72308L8.64875 7.89511C8.64875 7.89511 9.46297 8.08173 9.44581 8.09321C9.89022 8.20412 9.97059 8.49828 9.95724 8.73143L9.44522 10.7851C9.47583 10.7929 9.51552 10.8041 9.55932 10.8217C9.52271 10.8126 9.48375 10.8027 9.44332 10.793L8.72564 13.6699C8.67133 13.8049 8.53348 14.0075 8.22277 13.9306C8.23377 13.9465 7.42512 13.7315 7.42512 13.7315L6.88025 14.9876L8.30841 15.3436C8.5741 15.4102 8.83446 15.4799 9.09086 15.5455L8.63672 17.3688L9.73291 17.6422L10.1826 15.8383C10.4821 15.9195 10.7727 15.9945 11.0572 16.0652L10.609 17.8607L11.7065 18.1341L12.1606 16.3142C14.032 16.6683 15.4392 16.5255 16.0314 14.8331C16.5087 13.4704 16.0077 12.6844 15.0232 12.1719C15.7402 12.0065 16.2804 11.5349 16.4244 10.5608L16.424 10.5605L16.424 10.5606ZM13.9166 14.0763C13.5774 15.439 11.2828 14.7024 10.5389 14.5176L11.1416 12.102C11.8854 12.2877 14.271 12.6552 13.9166 14.0763H13.9166ZM14.256 10.5409C13.9466 11.7804 12.0368 11.1507 11.4173 10.9962L11.9637 8.80543C12.5832 8.95984 14.5783 9.24803 14.2561 10.5409H14.256Z" fill="white"/>
</svg>
