<svg width="24" height="24" viewBox="0 0 24 24" fill="none" xmlns="http://www.w3.org/2000/svg">
<path d="M12 22C17.5228 22 22 17.5228 22 12C22 6.47715 17.5228 2 12 2C6.47715 2 2 6.47715 2 12C2 17.5228 6.47715 22 12 22Z" fill="#627EEA"/>
<path d="M12.3109 4.5V10.0437L16.9965 12.1375L12.3109 4.5Z" fill="white" fill-opacity="0.602"/>
<path d="M12.3112 4.5L7.625 12.1375L12.3112 10.0437V4.5Z" fill="white"/>
<path d="M12.3109 15.7298V19.4966L16.9996 13.0098L12.3109 15.7298Z" fill="white" fill-opacity="0.602"/>
<path d="M12.3112 19.4966V15.7291L7.625 13.0098L12.3112 19.4966Z" fill="white"/>
<path d="M12.3109 14.858L16.9965 12.1374L12.3109 10.0449V14.858Z" fill="white" fill-opacity="0.2"/>
<path d="M7.625 12.1374L12.3112 14.858V10.0449L7.625 12.1374Z" fill="white" fill-opacity="0.602"/>
</svg>
