<svg width="24" height="24" viewBox="0 0 24 24" fill="none" xmlns="http://www.w3.org/2000/svg">
<path d="M21.9999 12C21.9999 17.523 17.5229 22 11.9999 22C6.47708 22 1.99988 17.523 1.99988 12C1.99988 6.4771 6.47708 2 11.9999 2C17.5229 2 21.9999 6.4771 21.9999 12Z" fill="#1BA27A"/>
<path d="M16.6932 7.04248H7.22424V9.32848H10.8157V12.6885H13.1017V9.32848H16.6932V7.04248Z" fill="white"/>
<path d="M11.9804 13.0464C9.00936 13.0464 6.60066 12.5762 6.60066 11.9961C6.60066 11.4161 9.00926 10.9458 11.9804 10.9458C14.9514 10.9458 17.36 11.4161 17.36 11.9961C17.36 12.5762 14.9514 13.0464 11.9804 13.0464ZM18.0209 12.1712C18.0209 11.4232 15.3165 10.8169 11.9804 10.8169C8.64436 10.8169 5.93976 11.4232 5.93976 12.1712C5.93976 12.8299 8.03686 13.3787 10.8158 13.5003V18.3237H13.1016V13.5022C15.9019 13.3844 18.0209 12.8333 18.0209 12.1712Z" fill="white"/>
</svg>
