<svg width="35" height="35" viewBox="0 0 35 35" fill="none" xmlns="http://www.w3.org/2000/svg">
<path d="M34.9316 17.6022C34.9316 8.21334 27.3205 0.602188 17.9316 0.602188C8.54279 0.602188 0.931641 8.21334 0.931641 17.6022C0.931641 26.991 8.54279 34.6022 17.9316 34.6022C27.3205 34.6022 34.9316 26.991 34.9316 17.6022Z" fill="#3389FB"/>
<path d="M11.448 13.1483C15.0289 9.64234 20.8347 9.64234 24.4157 13.1483L24.8466 13.5703C25.0257 13.7456 25.0257 14.0298 24.8466 14.2051L23.3724 15.6485C23.2828 15.7362 23.1377 15.7362 23.0482 15.6485L22.4551 15.0679C19.957 12.622 15.9067 12.622 13.4085 15.0679L12.7734 15.6897C12.6839 15.7774 12.5387 15.7774 12.4492 15.6897L10.9749 14.2463C10.7959 14.071 10.7959 13.7868 10.9749 13.6115L11.448 13.1483ZM27.4646 16.1335L28.7767 17.4182C28.9557 17.5935 28.9557 17.8777 28.7767 18.053L22.8603 23.8457C22.6813 24.021 22.391 24.021 22.2119 23.8457L18.0129 19.7345C17.9681 19.6906 17.8956 19.6906 17.8508 19.7345L13.6518 23.8457C13.4728 24.021 13.1825 24.021 13.0034 23.8457L7.08694 18.0529C6.90787 17.8776 6.90787 17.5934 7.08694 17.4181L8.39902 16.1334C8.57808 15.9582 8.86836 15.9582 9.04739 16.1334L13.2465 20.2447C13.2913 20.2886 13.3639 20.2886 13.4086 20.2447L17.6075 16.1334C17.7866 15.9581 18.0769 15.9581 18.2559 16.1334L22.455 20.2447C22.4998 20.2886 22.5724 20.2886 22.6171 20.2447L26.8162 16.1335C26.9952 15.9582 27.2855 15.9582 27.4646 16.1335Z" fill="white"/>
</svg>
