<svg width="1728" height="625" viewBox="0 0 1728 625" fill="none" xmlns="http://www.w3.org/2000/svg">
<g clip-path="url(#clip0_688_8515)">
<path d="M1823.76 625V283.134C1819.66 287.027 1816.16 291.514 1813.39 296.444C1800.94 278.709 1782.01 266.578 1760.7 262.668C1734.54 257.722 1715.35 273.539 1712.25 290.632C1709.15 307.726 1715.25 320.739 1726.28 328.716C1736.15 335.85 1750.56 329.263 1753.93 317.549C1758.01 303.418 1747.66 288.969 1734.63 292.683C1736.91 284.957 1745.59 282.108 1754.71 283.248C1766.88 284.775 1792.77 307.931 1798.46 343.758C1802.49 368.653 1801.99 394.071 1796.98 418.787C1792.37 411.39 1785.92 405.307 1778.27 401.123C1755.48 389.432 1739.53 399.255 1733.26 412.382C1730.58 417.654 1729.38 423.559 1729.81 429.458C1730.24 435.358 1732.26 441.03 1735.67 445.862C1741.81 454.569 1755.34 452.7 1760.74 444.085C1767.17 433.624 1761.93 419.015 1750.47 418.695C1754.09 413.02 1761.72 412.975 1768.9 416.416C1778.5 420.975 1787.78 438.25 1781.37 460.266C1780.94 461.793 1780.46 463.366 1779.98 465.007C1768.23 486.022 1751.99 504.185 1732.42 518.201C1738.18 452.7 1713.7 413.59 1688.2 400.485C1656.61 384.258 1634.48 397.91 1625.71 416.12C1621.97 423.433 1620.31 431.629 1620.9 439.819C1621.48 448.01 1624.3 455.885 1629.04 462.591C1637.58 474.693 1656.38 472.141 1663.75 460.13C1672.68 445.612 1665.39 425.464 1649.5 424.895C1654.52 417.009 1665.14 416.941 1675.1 421.59C1688.41 427.766 1701.28 451.879 1692.39 482.442C1686.38 503.091 1678.49 532.583 1651.53 554.029C1611.01 560.866 1563.97 552.228 1546.69 539.579C1526.18 524.537 1512.71 510.156 1501.34 471.206C1492.86 442.307 1477.59 423.596 1461.63 415.345C1430.05 399.118 1407.92 412.77 1399.14 430.98C1395.4 438.286 1393.72 446.476 1394.29 454.666C1394.86 462.855 1397.66 470.734 1402.38 477.451C1410.92 489.576 1429.73 487 1437.09 474.989C1446.05 460.38 1438.84 440.324 1422.89 439.868C1427.9 431.983 1438.52 431.914 1448.48 436.564C1461.79 442.74 1474.67 466.853 1465.78 497.416C1457.9 524.537 1446.64 565.265 1393.4 585.595C1412.59 495.843 1382.91 443.333 1351.8 427.356C1318.42 410.194 1295.01 424.621 1285.71 443.88C1281.76 451.614 1280.01 460.28 1280.63 468.941C1281.25 477.601 1284.23 485.927 1289.24 493.017C1298.36 505.803 1318.1 503.091 1325.91 490.396C1335.37 475.058 1327.65 453.748 1310.85 453.156C1316.16 444.814 1327.37 444.746 1337.95 449.646C1351.99 456.187 1364.36 481.85 1356.18 513.985C1348.55 544.183 1334.57 563.67 1312.88 573.857C1290.36 584.432 1260.28 575.475 1251.16 566.063C1235.82 550.223 1234.68 530.919 1240.68 521.597C1245.23 514.6 1251.71 510.202 1257.52 512.982C1247.97 519.933 1250.5 535.295 1260.98 540.468C1269.67 544.753 1282.04 538.531 1283.09 527.568C1283.79 521.776 1282.84 515.903 1280.36 510.622C1277.88 505.342 1273.96 500.868 1269.05 497.712C1257.38 490.191 1239.1 491.057 1225.38 514.122C1219.75 523.557 1216.61 536.913 1218.27 552.867C1214.41 549.463 1210.35 545.968 1206.08 542.383C1182.18 522.788 1156.78 505.101 1130.12 489.485C1129.55 482.647 1129.48 476.061 1129.36 470.317C1128.84 443.15 1144.59 427.014 1156.71 425.442C1165.83 424.279 1174.44 427.151 1176.79 434.877C1163.73 431.139 1153.41 445.612 1157.49 459.742C1160.86 471.457 1175.54 478.476 1185.13 470.887C1194.09 463.799 1201.09 451.127 1198.03 434.011C1194.98 416.895 1179.8 399.984 1150.7 404.838C1130.18 408.257 1105.91 427.88 1093.58 469.018C1085.04 464.46 1076.37 460.092 1067.58 455.913C1042.51 436.951 1036.01 417.556 1035.67 400.576C1035.26 378.857 1047.86 365.911 1057.57 364.703C1064.89 363.769 1071.77 366.071 1073.53 372.224C1063.09 369.262 1054.84 380.817 1058.1 392.121C1060.79 401.488 1072.55 407.118 1080.2 401.032C1084.54 397.582 1087.82 392.985 1089.67 387.763C1091.52 382.542 1091.88 376.906 1090.69 371.495C1088.2 357.82 1076.21 344.283 1052.85 348.157C1031.79 351.667 1001.21 371.381 996.355 425.966C993.346 424.917 990.338 423.869 987.238 422.889C978.353 419.943 969.647 416.481 961.165 412.519C955.318 404.592 952.127 395.019 952.049 385.17C951.707 368.464 961.393 358.504 968.869 357.57C974.498 356.863 979.786 358.618 981.221 363.359C973.199 361.08 966.84 369.968 969.347 378.651C971.421 385.853 980.446 390.184 986.349 385.489C989.652 382.822 992.144 379.287 993.546 375.28C994.947 371.273 995.201 366.955 994.281 362.812C992.366 352.305 983.136 341.889 965.176 344.875C951.297 347.154 934.659 361.581 928.027 392.349C917.312 383.723 908.444 373.026 901.954 360.897C891.424 342.163 878.753 313.287 858.172 292.706C843.053 276.912 823.251 266.404 801.696 262.736C775.532 257.79 756.342 273.607 753.219 290.701C750.097 307.794 756.228 320.808 767.259 328.785C777.127 335.918 791.531 329.332 794.904 317.617C798.984 303.486 788.637 289.037 775.6 292.752C777.879 285.026 786.563 282.177 795.679 283.316C807.849 284.843 833.74 307.999 839.438 343.827C843.479 368.72 842.977 394.14 837.957 418.855C833.354 411.455 826.916 405.37 819.268 401.192C796.477 389.5 780.523 399.323 774.255 412.451C771.565 417.719 770.366 423.623 770.788 429.524C771.209 435.425 773.236 441.098 776.649 445.931C782.802 454.637 796.317 452.768 801.719 444.153C808.146 433.692 802.904 419.083 791.463 418.764C795.064 413.089 802.722 413.043 809.901 416.485C819.473 421.043 828.749 438.319 822.345 460.335C821.912 461.862 821.456 463.434 820.977 465.075C809.18 486.039 792.919 504.152 773.344 518.133C779.11 452.631 754.609 413.522 729.106 400.417C697.518 384.19 675.388 397.842 666.636 416.052C662.896 423.364 661.229 431.56 661.816 439.751C662.402 447.943 665.22 455.818 669.963 462.523C678.487 474.625 697.313 472.072 704.651 460.061C713.586 445.543 706.315 425.396 690.407 424.826C695.421 416.94 706.042 416.872 716.024 421.522C729.334 427.698 742.188 451.811 733.3 482.374C727.283 503.022 719.42 532.514 692.458 553.961C651.913 560.798 604.872 552.16 587.619 539.511C567.107 524.469 553.66 510.088 542.288 471.138C533.878 442.33 518.653 423.618 502.586 415.368C470.997 399.141 448.867 412.793 440.115 431.003C436.38 438.316 434.716 446.511 435.303 454.702C435.889 462.893 438.704 470.767 443.443 477.474C451.967 489.599 470.792 487.023 478.131 475.012C487.088 460.494 479.795 440.347 463.886 439.777C468.9 431.891 479.521 431.823 489.504 436.472C502.791 442.649 515.668 466.762 506.779 497.325C498.894 524.446 487.635 565.174 434.395 585.503C453.608 495.752 423.934 443.241 392.824 427.265C359.435 410.103 336.028 424.53 326.73 443.788C322.776 451.52 321.013 460.185 321.631 468.847C322.25 477.508 325.227 485.835 330.239 492.926C339.356 505.712 359.093 503 366.91 490.305C376.369 474.967 368.665 453.657 351.868 453.064C357.156 444.723 368.392 444.654 378.944 449.555C393.006 456.096 405.359 481.758 397.177 513.894C389.519 544.092 375.548 563.578 353.874 573.766C331.356 584.341 301.249 575.384 292.133 565.971C276.794 550.132 275.655 530.828 281.672 521.506C286.23 514.509 292.702 510.11 298.491 512.891C288.965 519.842 291.472 535.203 301.956 540.377C310.662 544.662 323.037 538.44 324.063 527.477C324.766 521.684 323.822 515.81 321.338 510.53C318.855 505.249 314.934 500.775 310.024 497.621C298.355 490.1 280.076 490.966 266.356 514.031C260.727 523.466 257.604 536.822 259.245 552.775C255.401 549.372 251.337 545.877 247.052 542.292C223.159 522.692 197.76 505.004 171.089 489.393C170.519 482.556 170.451 475.969 170.337 470.226C169.813 443.059 185.562 426.923 197.686 425.35C206.803 424.188 215.418 427.06 217.765 434.786C204.729 431.048 194.382 445.521 198.461 459.651C201.834 471.366 216.535 478.385 226.107 470.796C235.064 463.708 242.061 451.036 239.007 433.92C235.953 416.804 220.888 399.893 191.692 404.747C171.18 408.166 146.885 427.789 134.578 468.927C126.008 464.369 117.333 460 108.55 455.822C83.4803 436.86 76.9848 417.465 76.643 400.485C76.2327 378.765 88.8134 365.82 98.5452 364.612C105.838 363.678 112.721 365.98 114.499 372.133C104.083 369.17 95.8103 380.725 99.0694 392.03C101.782 401.397 113.519 407.026 121.177 400.941C125.483 397.49 128.74 392.905 130.58 387.702C132.42 382.499 132.771 376.886 131.592 371.495C129.085 357.82 117.097 344.283 93.7363 348.157C72.6773 351.667 42.1145 371.381 37.2599 425.966C34.2515 424.917 31.2431 423.869 28.1435 422.889C19.2501 419.944 10.5367 416.482 2.04772 412.519C-3.78961 404.587 -6.97944 395.018 -7.06872 385.17C-7.38779 368.464 2.27563 358.504 9.7739 357.57C15.3805 356.863 20.668 358.618 22.1267 363.359C14.1042 361.08 7.74549 369.968 10.2525 378.651C12.3265 385.853 21.3518 390.184 27.2547 385.489C30.5572 382.822 33.0496 379.287 34.4509 375.28C35.8522 371.273 36.1068 366.955 35.186 362.812C33.2487 352.305 24.0411 341.889 6.08173 344.875C-7.82083 347.154 -24.4583 361.581 -31.0677 392.349C-60.1492 369.558 -69.8126 343.781 -70.1317 325.731C-70.5647 301.412 -53.6765 288.057 -37.7227 287.419C-28.1505 287.031 -19.7178 292.114 -19.7178 303.373C-28.2872 300.569 -38.9079 310.073 -35.6715 321.742C-35.1079 323.952 -34.0004 325.986 -32.4499 327.659C-30.8994 329.332 -28.9552 330.59 -26.7942 331.319C-24.6332 332.049 -22.3241 332.226 -20.0771 331.835C-17.83 331.444 -15.7165 330.497 -13.9288 329.081C-9.38869 325.368 -5.9429 320.491 -3.95982 314.971C-1.97675 309.451 -1.53094 303.497 -2.67004 297.743C-5.24544 283.635 -16.3447 262.007 -42.1214 262.007C-64.4339 262.007 -77.3792 266.816 -95.0195 283.18V625.046L1823.76 625Z" fill="#0072B8"/>
<path d="M70.2826 277.048C70.0393 279.713 69.0257 282.25 67.3655 284.349C65.7053 286.448 63.4702 288.018 60.9328 288.868C58.3954 289.719 55.6654 289.812 53.0756 289.138C50.4859 288.463 48.1485 287.05 46.3483 285.07C44.5482 283.09 43.3631 280.628 42.9378 277.986C42.5124 275.344 42.865 272.635 43.9527 270.19C45.0404 267.745 46.8161 265.669 49.0632 264.216C51.3104 262.763 53.9318 261.995 56.6079 262.006C60.4111 262.201 63.983 263.892 66.5447 266.709C69.1064 269.527 70.45 273.244 70.2826 277.048Z" fill="#0072B8"/>
<path d="M253.839 303.371C253.575 306.001 252.554 308.498 250.9 310.56C249.246 312.622 247.03 314.161 244.519 314.989C242.009 315.818 239.313 315.901 236.756 315.229C234.2 314.557 231.893 313.158 230.115 311.202C228.337 309.246 227.164 306.817 226.737 304.208C226.311 301.599 226.65 298.923 227.714 296.503C228.777 294.083 230.519 292.023 232.729 290.572C234.939 289.121 237.521 288.342 240.165 288.329C243.97 288.518 247.545 290.207 250.108 293.026C252.671 295.845 254.013 299.565 253.839 303.371Z" fill="#0072B8"/>
<path d="M739.405 364.498C739.162 367.163 738.148 369.7 736.488 371.799C734.828 373.898 732.593 375.468 730.055 376.319C727.518 377.169 724.788 377.263 722.198 376.588C719.608 375.914 717.271 374.5 715.471 372.52C713.671 370.54 712.486 368.079 712.06 365.436C711.635 362.794 711.988 360.086 713.075 357.64C714.163 355.195 715.939 353.12 718.186 351.666C720.433 350.213 723.054 349.445 725.73 349.456C733.251 349.456 739.405 356.202 739.405 364.498Z" fill="#0072B8"/>
<path d="M661.664 341.32C661.487 343.229 660.759 345.046 659.569 346.549C658.378 348.052 656.776 349.177 654.958 349.787C653.14 350.396 651.184 350.464 649.328 349.981C647.472 349.499 645.796 348.488 644.504 347.071C643.213 345.653 642.361 343.891 642.052 341.999C641.744 340.106 641.992 338.164 642.767 336.41C643.542 334.656 644.81 333.165 646.417 332.119C648.024 331.073 649.901 330.516 651.818 330.517C654.555 330.647 657.129 331.857 658.975 333.882C660.821 335.907 661.788 338.582 661.664 341.32Z" fill="#0072B8"/>
<path d="M619.478 441.919C619.297 443.822 618.567 445.631 617.378 447.127C616.189 448.622 614.591 449.741 612.778 450.346C610.965 450.951 609.016 451.016 607.166 450.535C605.317 450.053 603.647 449.045 602.36 447.632C601.073 446.22 600.223 444.464 599.914 442.578C599.606 440.692 599.852 438.757 600.622 437.008C601.392 435.259 602.653 433.771 604.253 432.725C605.852 431.679 607.721 431.12 609.632 431.116C612.369 431.246 614.943 432.457 616.789 434.482C618.635 436.507 619.602 439.182 619.478 441.919Z" fill="#0072B8"/>
<path d="M96.4437 319.372C96.267 321.282 95.539 323.099 94.3484 324.602C93.1578 326.105 91.5559 327.23 89.7377 327.839C87.9195 328.449 85.9634 328.516 84.1074 328.034C82.2514 327.552 80.5756 326.541 79.2839 325.124C77.9921 323.706 77.1403 321.944 76.8319 320.051C76.5235 318.159 76.7719 316.217 77.5469 314.463C78.3219 312.709 79.59 311.218 81.1969 310.172C82.8039 309.125 84.6803 308.569 86.5979 308.569C89.335 308.699 91.9088 309.91 93.7546 311.935C95.6004 313.96 96.5675 316.635 96.4437 319.372Z" fill="#0072B8"/>
<path d="M208.78 278.917C208.607 280.829 207.882 282.649 206.693 284.156C205.504 285.663 203.902 286.791 202.082 287.403C200.263 288.015 198.305 288.085 196.446 287.603C194.588 287.121 192.91 286.109 191.617 284.69C190.324 283.271 189.472 281.507 189.165 279.612C188.857 277.717 189.108 275.774 189.886 274.019C190.664 272.264 191.936 270.773 193.547 269.729C195.158 268.684 197.037 268.131 198.957 268.137C201.686 268.273 204.25 269.482 206.091 271.502C207.931 273.522 208.898 276.187 208.78 278.917Z" fill="#0072B8"/>
<path d="M-86.5398 609.958C-62.7231 572.763 -30.8156 550.108 2.34546 540.012C35.5065 529.915 77.8067 535.112 111.241 556.102C80.1087 543.635 41.6601 538.599 6.10599 548.695C-24.7531 557.447 -56.6379 577.526 -86.5398 609.958Z" fill="white"/>
<path d="M820.656 285.185C849.214 314.653 856.188 349 853.065 396.473C851.509 420.828 845.182 444.64 834.445 466.556C835.63 457.007 836.018 441.349 830.593 428.267C825.169 415.185 814.959 404.655 798.344 408.165C814.617 407.823 818.286 413.202 825.146 424.575C832.006 435.948 831.984 470.727 821.363 488.777C813.622 500.25 804.043 510.368 793.011 518.725C827.767 499.444 857.304 443.993 858.649 396.952C859.948 351.302 853.931 314.198 820.656 285.185Z" fill="white"/>
<path d="M524.508 574.335C544.245 563.236 571.39 552.935 591.127 557.174C610.864 561.413 628.8 564.786 651.523 565.31C624.926 568.66 601.383 564.193 590.762 563.031C568.039 560.661 548.849 564.672 524.508 574.335Z" fill="white"/>
<path d="M515.619 574.45C525.897 567.407 540.073 554.325 548.734 550.473C555.568 547.64 562.937 546.33 570.328 546.633C577.72 546.936 584.957 548.845 591.536 552.228C578.978 543.112 560.654 537.779 548.415 543.431C539.367 547.602 532.005 559.635 515.619 574.45Z" fill="white"/>
<path d="M725.344 409.42C744.648 419.995 763.633 451.378 766.209 482.351C768.784 513.324 758.163 548.286 735.646 574.746C715.772 598.085 674.52 612.83 645.895 620.944C691.249 602.939 713.766 587.441 730.814 568.752C743.691 554.622 762.494 513.689 760.739 482.693C758.824 448.552 744.648 424.918 725.344 409.42Z" fill="white"/>
<path d="M744.555 483.467C738.128 515.921 727.599 546.233 689.652 573.036C651.704 599.838 625.312 605.49 594.43 614.652C633.016 609.729 668.228 597.787 695.441 577.275C725.342 554.712 743.256 526.132 744.555 483.467Z" fill="white"/>
<path d="M64.9017 375.551C56.8564 390.023 49.153 416.119 57.5174 448.893C65.8817 481.666 87.1458 506.6 124.432 524.718C162.06 543.065 188.771 551.521 204.52 568.455C179.108 550.472 139.383 539.191 121.515 529.299C90.9747 512.389 62.1212 489.78 54.281 452.425C46.8967 417.076 53.3238 391.072 64.9017 375.551Z" fill="white"/>
<path d="M753.945 277.892C738.288 280.581 727.941 291.863 726.026 302.802C725.548 305.381 725.304 307.997 725.297 310.62C725.173 315.682 726.305 320.696 728.592 325.214C730.878 329.732 734.249 333.613 738.402 336.51C740.459 338.01 742.944 338.809 745.49 338.789C748.713 338.688 751.83 337.613 754.43 335.705C757.03 333.797 758.991 331.145 760.053 328.1C754.473 322.558 750.706 315.454 749.25 307.725H748.749C747.684 307.726 746.625 307.88 745.604 308.181L738.766 310.164C738.48 307.623 738.898 305.053 739.974 302.734C741.781 298.562 744.946 295.125 748.954 292.979C749.091 291.954 749.205 290.951 749.387 289.925C750.176 285.674 751.72 281.599 753.945 277.892Z" fill="#0072B8"/>
<path d="M662.349 417.19C646.669 419.88 636.344 431.161 634.43 442.078C633.946 444.656 633.695 447.273 633.678 449.896C633.558 454.96 634.695 459.974 636.985 464.492C639.276 469.01 642.65 472.89 646.806 475.786C648.866 477.279 651.349 478.077 653.894 478.065C657.117 477.964 660.234 476.889 662.834 474.981C665.434 473.073 667.394 470.421 668.457 467.376C662.875 461.833 659.101 454.73 657.631 447.001H657.153C656.089 447.014 655.031 447.167 654.008 447.457L647.17 449.463C646.901 446.92 647.326 444.352 648.401 442.033C650.202 437.857 653.368 434.418 657.381 432.278C657.517 431.253 657.609 430.25 657.791 429.201C658.585 424.959 660.128 420.891 662.349 417.19Z" fill="#0072B8"/>
<path d="M711.187 276.159C691.541 276.159 678.276 289.127 676.088 301.64C675.612 304.218 675.368 306.835 675.359 309.457C675.237 314.522 676.37 319.539 678.657 324.06C680.943 328.581 684.312 332.467 688.464 335.37C690.519 336.859 692.992 337.657 695.529 337.65C698.844 337.557 702.047 336.434 704.694 334.437C707.341 332.439 709.3 329.667 710.298 326.505C710.781 324.861 711.026 323.158 711.027 321.445C711.027 313.217 705.489 306.562 698.811 306.54C697.747 306.552 696.69 306.705 695.666 306.996L688.829 309.001L691.108 301.571C692.37 297.393 695.228 293.88 699.062 291.794C702.763 289.878 706.883 288.914 711.05 288.991C712.467 288.992 713.883 289.083 715.289 289.264C718.866 289.905 722.281 291.245 725.34 293.207C727.896 288.679 731.31 284.692 735.391 281.47C730.485 279.512 725.402 278.031 720.212 277.048C717.237 276.476 714.216 276.178 711.187 276.159Z" fill="#0072B8"/>
<path d="M311.297 418.969C291.651 418.969 278.387 431.937 276.176 444.472C275.699 447.051 275.454 449.667 275.447 452.289C275.321 457.354 276.455 462.371 278.746 466.89C281.037 471.409 284.415 475.288 288.575 478.18C290.623 479.68 293.101 480.479 295.64 480.459C298.954 480.367 302.158 479.244 304.805 477.246C307.452 475.249 309.41 472.476 310.408 469.314C310.893 467.664 311.138 465.952 311.138 464.232C311.138 456.027 305.6 449.349 298.922 449.349C297.857 449.351 296.798 449.504 295.777 449.805L288.939 451.788L291.218 444.358C292.475 440.182 295.335 436.674 299.172 434.603C302.865 432.666 306.991 431.701 311.161 431.8C312.578 431.801 313.994 431.893 315.4 432.074C318.974 432.709 322.389 434.041 325.451 435.994C328.012 431.469 331.425 427.483 335.501 424.256C330.591 422.316 325.509 420.843 320.323 419.858C317.349 419.276 314.327 418.979 311.297 418.969Z" fill="#0072B8"/>
<path d="M692.252 553.982C688.423 554.621 684.548 555.122 680.628 555.487C666.521 565.15 647.103 575.315 619.867 587.166C582.117 603.576 542.851 616.247 502.63 624.999H526.994C559.385 616.629 591.071 605.732 621.759 592.408C659.592 575.907 679.899 563.988 692.252 553.982Z" fill="white"/>
<path d="M7.98901 615.678C89.376 583.292 141.271 600.271 183.184 624.999H214.089C168.074 596.83 102.185 569.777 7.98901 615.678Z" fill="white"/>
<path d="M493.423 585.504C523.871 558.155 533.444 530.805 532.828 498.898C532.828 489.531 530.025 467.309 523.438 455.595C527.796 469.311 530.1 483.596 530.276 497.986C530.276 523.786 519.29 560.525 476.306 587.532C471.338 588.239 466.324 589.014 461.264 589.811C500.214 566.2 510.197 539.557 516.943 511.729C519.222 502.157 521.273 482.283 518.333 468.426C519.006 482.402 517.624 496.4 514.231 509.974C507.53 533.768 493.331 566.952 445.47 592.478C409.187 599.315 371.969 609.64 339.081 624.773H370.989C457.732 588.49 551.996 583.339 602.09 581.994C581.67 580.057 542.674 579.601 493.423 585.504Z" fill="white"/>
<path d="M-76.9742 306.084C-83.2873 326.186 -82.444 351.347 -67.1968 380.497C-53.3626 406.98 -23.8937 439.503 7.64915 454.773C-21.9793 432.461 -49.0779 407.185 -63.9832 378.377C-77.3616 352.509 -82.011 333.479 -76.9742 306.084Z" fill="white"/>
<path d="M367.955 585.024C343.022 600.226 311.912 602.14 277.543 596.42C264.188 578.551 260.45 565.652 259.174 552.661L254.798 547.852C255.048 561.367 257.897 575.064 270.911 595.235C266.603 594.437 262.228 593.457 257.829 592.454C243.781 573.144 226.127 556.736 205.842 544.137C190.208 529.14 178.493 510.748 175.895 492.242L171.018 489.347C173.297 506.258 177.855 520.503 187.86 533.995C179.519 529.756 171.268 526.086 163.269 522.736C154.585 497.825 150.665 470.955 166.345 431.275C155.246 448.847 144.557 481.097 156.135 519.773C147.292 516.127 138.837 512.731 131.065 509.153C129.694 495.625 130.901 481.959 134.62 468.881L130.29 466.396C125.77 479.027 123.659 492.393 124.068 505.802C117.009 502.395 110.352 498.214 104.217 493.336C89.5218 481.422 78.4262 465.66 72.1682 447.808C65.9102 429.955 64.736 410.715 68.7768 392.234C59.2273 421.863 66.4977 469.861 104.149 500.879C118.461 512.731 137.834 519.591 158.847 527.955C187.86 539.579 220.11 554.37 246.661 589.696C230.48 585.389 213.819 579.919 196.908 573.743C181.524 568.326 165.623 564.508 149.457 562.347C129.059 539.715 89.4255 519.409 52.4128 500.811C41.2677 477.467 36.0391 451.739 37.1883 425.897L31.3766 423.914C30.3113 439.308 31.1842 454.775 33.9748 469.952C21.9411 459.673 15.1949 453.2 6.62547 439.982C-5.27148 421.749 -17.1912 399.527 -11.6074 369.215C-21.6811 393.898 -12.5646 423.093 4.48311 447.731C12.964 460.519 23.7907 471.586 36.3906 480.345C37.7117 485.406 39.356 490.377 41.3135 495.227C23.3313 486.111 6.53431 477.587 -6.38824 469.359C-61.839 434.102 -86.6357 385.169 -86.704 336.761C-88.9832 374.867 -75.3085 417.464 -40.8712 452.608C-49.6913 502.315 -70.9326 533.516 -95 559.612V580.511C-69.9298 552.205 -45.8852 513.187 -38.9795 454.522C-29.6316 463.755 -19.3856 472.031 -8.39386 479.228C32.4022 506.167 89.8813 527.818 126.393 559.908C66.133 556.102 -3.97238 568.774 -52.8365 607.61C20.5052 558.928 131.179 558.222 196.726 582.221C262.273 606.22 324.356 619.94 367.887 593.616C398.655 574.859 406.495 541.425 409.048 514.622C406.564 541.311 398.723 566.29 367.955 585.024Z" fill="white"/>
<path d="M1013.79 296.284C1013.54 298.949 1012.53 301.486 1010.87 303.585C1009.21 305.684 1006.97 307.254 1004.44 308.105C1001.9 308.955 999.17 309.049 996.58 308.374C993.99 307.7 991.653 306.286 989.853 304.306C988.053 302.326 986.868 299.865 986.442 297.223C986.017 294.58 986.369 291.872 987.457 289.427C988.545 286.981 990.32 284.906 992.568 283.452C994.815 281.999 997.436 281.231 1000.11 281.242C1003.92 281.437 1007.49 283.128 1010.05 285.946C1012.61 288.764 1013.95 292.48 1013.79 296.284Z" fill="#0072B8"/>
<path d="M445.15 397.772C445.312 401.574 443.966 405.288 441.406 408.104C438.845 410.921 435.277 412.613 431.476 412.814C423.909 412.814 417.801 405.976 417.801 397.772C417.549 395.828 417.715 393.852 418.287 391.978C418.86 390.103 419.825 388.372 421.119 386.899C422.413 385.427 424.006 384.248 425.792 383.44C427.578 382.632 429.515 382.214 431.476 382.214C433.436 382.214 435.373 382.632 437.159 383.44C438.945 384.248 440.538 385.427 441.832 386.899C443.126 388.372 444.092 390.103 444.664 391.978C445.236 393.852 445.402 395.828 445.15 397.772Z" fill="#0072B8"/>
<path d="M329.551 397.773C329.551 406.069 323.398 412.815 315.877 412.815C312.841 413.105 309.788 412.469 307.12 410.991C304.452 409.514 302.294 407.263 300.929 404.536C299.564 401.809 299.056 398.732 299.472 395.711C299.888 392.69 301.209 389.865 303.26 387.608C305.312 385.351 307.998 383.768 310.966 383.067C313.934 382.366 317.045 382.579 319.89 383.679C322.734 384.778 325.18 386.713 326.904 389.229C328.629 391.744 329.551 394.723 329.551 397.773Z" fill="#0072B8"/>
<path d="M1194.09 352.898C1194.09 361.216 1187.93 367.962 1180.41 367.962C1172.89 367.962 1166.74 361.125 1166.74 352.898C1166.57 349.095 1167.92 345.382 1170.48 342.565C1173.04 339.749 1176.61 338.056 1180.41 337.855C1187.93 337.855 1194.09 344.602 1194.09 352.898Z" fill="#0072B8"/>
<path d="M1502.17 319.94C1502.17 328.236 1496.04 334.982 1488.5 334.982C1480.95 334.982 1474.82 328.145 1474.82 319.94C1474.82 316.314 1476.26 312.835 1478.83 310.271C1481.39 307.706 1484.87 306.266 1488.5 306.266C1492.12 306.266 1495.6 307.706 1498.17 310.271C1500.73 312.835 1502.17 316.314 1502.17 319.94Z" fill="#0072B8"/>
<path d="M1698.52 364.498C1698.7 366.407 1698.47 368.33 1697.86 370.147C1697.25 371.963 1696.27 373.632 1694.98 375.047C1693.68 376.462 1692.11 377.593 1690.36 378.366C1688.6 379.14 1686.71 379.539 1684.79 379.539C1682.88 379.539 1680.98 379.14 1679.23 378.366C1677.47 377.593 1675.9 376.462 1674.61 375.047C1673.32 373.632 1672.33 371.963 1671.72 370.147C1671.11 368.33 1670.89 366.407 1671.06 364.498C1671.06 356.202 1677.21 349.456 1684.74 349.456C1688.56 349.628 1692.15 351.307 1694.74 354.127C1697.32 356.947 1698.69 360.676 1698.52 364.498Z" fill="#0072B8"/>
<path d="M1620.71 341.32C1620.54 343.229 1619.81 345.046 1618.62 346.549C1617.43 348.052 1615.83 349.177 1614.01 349.787C1612.19 350.396 1610.23 350.464 1608.38 349.981C1606.52 349.499 1604.85 348.488 1603.55 347.071C1602.26 345.653 1601.41 343.891 1601.1 341.999C1600.79 340.106 1601.04 338.164 1601.82 336.41C1602.59 334.656 1603.86 333.165 1605.47 332.119C1607.07 331.073 1608.95 330.516 1610.87 330.517C1613.61 330.647 1616.18 331.857 1618.03 333.882C1619.87 335.907 1620.84 338.582 1620.71 341.32Z" fill="#0072B8"/>
<path d="M1486.52 366.115C1486.34 368.025 1485.61 369.842 1484.42 371.345C1483.23 372.848 1481.63 373.973 1479.81 374.582C1477.99 375.192 1476.04 375.26 1474.18 374.777C1472.32 374.295 1470.65 373.284 1469.36 371.867C1468.07 370.449 1467.21 368.687 1466.91 366.795C1466.6 364.902 1466.85 362.96 1467.62 361.206C1468.4 359.452 1469.66 357.961 1471.27 356.915C1472.88 355.869 1474.75 355.312 1476.67 355.313C1479.41 355.442 1481.98 356.653 1483.83 358.678C1485.67 360.703 1486.64 363.378 1486.52 366.115Z" fill="#0072B8"/>
<path d="M1603.69 467.012C1603.51 468.914 1602.78 470.723 1601.59 472.219C1600.4 473.715 1598.8 474.833 1596.99 475.438C1595.18 476.043 1593.23 476.109 1591.38 475.627C1589.53 475.146 1587.86 474.137 1586.57 472.725C1585.28 471.313 1584.43 469.557 1584.13 467.671C1583.82 465.785 1584.06 463.85 1584.83 462.101C1585.6 460.352 1586.86 458.864 1588.46 457.818C1590.06 456.772 1591.93 456.213 1593.84 456.209C1596.58 456.345 1599.15 457.557 1600.99 459.581C1602.84 461.605 1603.81 464.276 1603.69 467.012Z" fill="#0072B8"/>
<path d="M1055.52 319.372C1055.34 321.282 1054.61 323.099 1053.42 324.602C1052.23 326.105 1050.63 327.23 1048.81 327.839C1046.99 328.449 1045.04 328.516 1043.18 328.034C1041.33 327.552 1039.65 326.541 1038.36 325.124C1037.07 323.706 1036.21 321.944 1035.91 320.051C1035.6 318.159 1035.85 316.217 1036.62 314.463C1037.4 312.709 1038.66 311.218 1040.27 310.172C1041.88 309.125 1043.75 308.569 1045.67 308.569C1048.41 308.699 1050.98 309.91 1052.83 311.935C1054.67 313.96 1055.64 316.635 1055.52 319.372Z" fill="#0072B8"/>
<path d="M1399.62 360.1C1399.44 362.01 1398.72 363.83 1397.53 365.336C1396.34 366.843 1394.74 367.971 1392.92 368.584C1391.11 369.197 1389.15 369.267 1387.29 368.788C1385.43 368.308 1383.75 367.298 1382.46 365.881C1381.17 364.464 1380.31 362.702 1380 360.809C1379.69 358.915 1379.94 356.972 1380.72 355.217C1381.49 353.462 1382.76 351.97 1384.37 350.922C1385.97 349.875 1387.85 349.318 1389.77 349.319C1392.5 349.449 1395.07 350.657 1396.92 352.677C1398.76 354.697 1399.73 357.366 1399.62 360.1Z" fill="#0072B8"/>
<path d="M1149.12 303.418C1148.94 305.329 1148.22 307.148 1147.03 308.655C1145.84 310.161 1144.24 311.29 1142.42 311.902C1140.61 312.515 1138.65 312.586 1136.79 312.106C1134.93 311.626 1133.25 310.616 1131.96 309.2C1130.67 307.783 1129.81 306.02 1129.5 304.127C1129.19 302.233 1129.44 300.291 1130.22 298.535C1130.99 296.78 1132.26 295.288 1133.87 294.241C1135.47 293.194 1137.35 292.637 1139.27 292.638C1142 292.774 1144.57 293.983 1146.41 296.002C1148.26 298.02 1149.23 300.686 1149.12 303.418Z" fill="#0072B8"/>
<path d="M479.039 338.812C478.862 340.721 478.134 342.538 476.944 344.041C475.753 345.545 474.151 346.669 472.333 347.279C470.515 347.888 468.559 347.956 466.703 347.474C464.847 346.992 463.171 345.98 461.879 344.563C460.588 343.146 459.736 341.383 459.427 339.491C459.119 337.598 459.367 335.657 460.142 333.903C460.917 332.149 462.185 330.658 463.792 329.611C465.399 328.565 467.276 328.008 469.193 328.009C471.931 328.139 474.504 329.349 476.35 331.374C478.196 333.4 479.163 336.074 479.039 338.812Z" fill="#0072B8"/>
<path d="M236.017 352.965C235.84 354.875 235.112 356.691 233.922 358.195C232.731 359.698 231.129 360.823 229.311 361.432C227.493 362.041 225.537 362.109 223.681 361.627C221.825 361.145 220.149 360.134 218.857 358.716C217.566 357.299 216.714 355.537 216.405 353.644C216.097 351.751 216.345 349.81 217.12 348.056C217.895 346.302 219.163 344.811 220.77 343.765C222.377 342.718 224.254 342.161 226.171 342.162C228.909 342.292 231.482 343.502 233.328 345.528C235.174 347.553 236.141 350.228 236.017 352.965Z" fill="#0072B8"/>
<path d="M872.569 609.958C896.385 572.763 928.293 550.108 961.454 540.012C994.615 529.915 1036.89 535.112 1070.35 556.102C1039.19 543.635 1000.77 538.599 965.214 548.695C934.333 557.447 902.471 577.526 872.569 609.958Z" fill="white"/>
<path d="M1483.62 574.335C1503.36 563.236 1530.5 552.935 1550.22 557.174C1569.93 561.413 1587.92 564.786 1610.64 565.31C1584.04 568.66 1560.5 564.193 1549.88 563.031C1527.15 560.661 1507.94 564.672 1483.62 574.335Z" fill="white"/>
<path d="M1474.71 574.45C1485.02 567.407 1499.19 554.325 1507.85 550.473C1514.68 547.641 1522.05 546.33 1529.44 546.633C1536.82 546.936 1544.06 548.846 1550.63 552.228C1538.1 543.112 1519.75 537.779 1507.53 543.431C1498.49 547.602 1491.12 559.635 1474.71 574.45Z" fill="white"/>
<path d="M1684.46 409.42C1703.77 419.995 1722.75 451.378 1725.33 482.351C1727.9 513.324 1717.28 548.286 1694.76 574.746C1674.87 598.085 1633.64 612.83 1605.01 620.944C1650.37 602.939 1672.88 587.441 1689.93 568.752C1702.81 554.622 1721.59 513.689 1719.86 482.693C1717.92 448.552 1703.77 424.918 1684.46 409.42Z" fill="white"/>
<path d="M1703.65 483.467C1697.22 515.921 1686.71 546.233 1648.74 573.036C1610.77 599.838 1584.41 605.49 1553.52 614.652C1592.13 609.729 1627.34 597.787 1654.53 577.275C1684.46 554.712 1702.37 526.132 1703.65 483.467Z" fill="white"/>
<path d="M1024.04 375.551C1016 390.023 1008.27 416.119 1016.64 448.893C1025 481.666 1046.26 506.6 1083.55 524.718C1121.2 543.065 1147.89 551.521 1163.66 568.455C1138.25 550.472 1098.52 539.191 1080.66 529.299C1050.09 512.389 1021.26 489.78 1013.42 452.425C1005.99 417.076 1012.44 391.072 1024.04 375.551Z" fill="white"/>
<path d="M1713.04 277.892C1697.38 280.581 1687.06 291.863 1685.14 302.802C1684.66 305.38 1684.41 307.997 1684.39 310.62C1684.27 315.684 1685.41 320.698 1687.7 325.216C1689.99 329.734 1693.36 333.614 1697.52 336.51C1699.58 338.01 1702.06 338.809 1704.61 338.789C1707.82 338.695 1710.93 337.633 1713.53 335.742C1716.13 333.851 1718.09 331.219 1719.17 328.192C1713.58 322.652 1709.81 315.547 1708.35 307.816H1707.87C1706.8 307.818 1705.74 307.971 1704.72 308.272L1697.88 310.255C1697.61 307.713 1698.04 305.145 1699.11 302.825C1700.92 298.654 1704.09 295.216 1708.09 293.07C1708.23 292.045 1708.32 291.042 1708.5 290.016C1709.29 285.738 1710.82 281.633 1713.04 277.892Z" fill="#0072B8"/>
<path d="M1670.31 276.159C1650.66 276.159 1637.4 289.127 1635.19 301.64C1634.71 304.218 1634.47 306.835 1634.46 309.457C1634.34 314.522 1635.47 319.539 1637.75 324.06C1640.04 328.581 1643.41 332.467 1647.56 335.37C1649.62 336.863 1652.11 337.661 1654.65 337.65C1657.96 337.557 1661.17 336.434 1663.81 334.437C1666.46 332.439 1668.42 329.667 1669.42 326.505C1669.89 324.859 1670.14 323.157 1670.15 321.445C1670.15 313.217 1664.59 306.562 1657.91 306.54C1656.85 306.554 1655.8 306.707 1654.79 306.996L1647.95 309.001L1650.23 301.571C1651.45 297.38 1654.27 293.84 1658.09 291.725C1661.79 289.809 1665.91 288.846 1670.08 288.922C1671.5 288.924 1672.91 289.015 1674.32 289.196C1677.89 289.841 1681.31 291.18 1684.37 293.139C1686.92 288.605 1690.33 284.617 1694.42 281.401C1689.51 279.443 1684.42 277.963 1679.22 276.98C1676.28 276.436 1673.3 276.161 1670.31 276.159Z" fill="#0072B8"/>
<path d="M864.641 580.512C890.577 551.362 914.781 510.885 920.776 449.235L919.203 446.705C911.089 499.854 889.574 532.4 864.618 559.521C860.994 563.487 857.302 567.316 853.565 571.076C830.614 594.186 810.626 611.143 787.812 624.909H817.851C830.344 614.667 842.266 603.749 853.565 592.203C857.257 588.58 860.972 584.66 864.641 580.512Z" fill="white"/>
<path d="M864.641 500.173C871.363 476.404 874.701 451.805 874.556 427.104C873.788 447.333 870.456 467.382 864.641 486.772C853.429 522.674 833.237 555.12 805.977 581.036C789.805 596.917 772.507 611.61 754.219 625H777.716C789.513 615.076 800.787 604.548 811.493 593.457C836.522 567.14 854.764 535.122 864.641 500.173Z" fill="white"/>
<path d="M864.64 441.167C869.217 422.829 871.845 404.059 872.48 385.169C870.754 398.998 868.135 412.702 864.64 426.193C850.578 477.769 825.553 517.152 800.597 542.427C789.43 553.663 778.991 563.441 768.69 572.056C774.615 551.909 775.732 533.904 777.077 515.238L773.339 518.132C770.399 538.462 767.983 557.971 759.117 579.668C733.751 599.109 707.404 612.487 670.095 624.908H686.984C735.551 606.812 765.978 585.092 804.175 546.53C833.377 517.438 854.255 481.057 864.64 441.167Z" fill="white"/>
<path d="M1770.59 593.458C1795.62 567.142 1813.87 535.125 1823.76 500.174V486.772C1812.55 522.681 1792.35 555.129 1765.07 581.036C1748.91 596.923 1731.61 611.616 1713.31 625H1736.83C1748.63 615.083 1759.9 604.554 1770.59 593.458Z" fill="white"/>
<path d="M1651.35 553.982C1647.52 554.621 1643.64 555.122 1639.75 555.487C1625.64 565.15 1606.22 575.315 1578.96 587.166C1541.22 603.579 1501.96 616.251 1461.75 624.999H1486.09C1518.48 616.633 1550.17 605.736 1580.85 592.408C1618.69 575.907 1638.95 563.988 1651.35 553.982Z" fill="white"/>
<path d="M967.065 615.678C1048.45 583.292 1100.37 600.271 1142.28 624.999H1173.19C1127.2 596.83 1061.28 569.777 967.065 615.678Z" fill="white"/>
<path d="M1823.76 441.167V426.33C1809.69 477.906 1784.65 517.289 1759.71 542.565C1748.52 553.801 1738.08 563.578 1727.81 572.193C1733.75 552.046 1734.85 534.041 1736.22 515.375C1734.98 516.309 1733.73 517.267 1732.46 518.201C1729.54 538.531 1727.12 558.04 1718.26 579.737C1692.87 599.178 1666.54 612.556 1629.23 624.977H1646.1C1694.69 606.881 1725.12 585.161 1763.31 546.599C1792.51 517.479 1813.38 481.076 1823.76 441.167Z" fill="white"/>
<path d="M1452.51 585.504C1482.94 558.155 1492.53 530.805 1491.9 498.898C1491.9 489.531 1489.11 467.309 1482.51 455.595C1486.88 469.308 1489.18 483.595 1489.34 497.986C1489.34 523.786 1478.38 560.525 1435.37 587.532C1430.43 588.239 1425.39 589.014 1420.35 589.811C1459.28 566.2 1469.29 539.557 1476.01 511.729C1478.29 502.157 1480.36 482.283 1477.4 468.426C1478.08 482.401 1476.71 496.399 1473.32 509.974C1466.62 533.768 1452.4 566.952 1404.54 592.478C1368.25 599.315 1331.04 609.64 1298.15 624.773H1330.06C1416.78 588.49 1511.04 583.339 1561.16 581.994C1540.76 580.057 1501.79 579.601 1452.51 585.504Z" fill="white"/>
<path d="M1327.16 585.024C1302.23 600.225 1271.14 602.14 1236.77 596.419C1223.39 578.551 1219.68 565.651 1218.4 552.66L1214 547.851C1214.26 561.367 1217.1 575.064 1230.14 595.234C1225.83 594.436 1221.46 593.456 1217.06 592.454C1203.01 573.124 1185.36 556.694 1165.07 544.068C1149.44 529.072 1137.72 510.679 1135.12 492.173L1130.25 489.278C1132.64 506.189 1137.09 520.434 1147.09 533.926C1138.75 529.687 1130.5 526.018 1122.5 522.667C1113.82 497.757 1109.9 470.886 1125.58 431.207C1114.48 448.779 1103.79 481.028 1115.37 519.704C1106.5 516.058 1098.07 512.662 1090.29 509.084C1088.95 495.556 1090.15 481.895 1093.85 468.812L1089.54 466.328C1085.02 478.957 1082.9 492.323 1083.3 505.734C1076.24 502.332 1069.59 498.15 1063.47 493.267C1048.78 481.347 1037.7 465.582 1031.45 447.73C1025.2 429.879 1024.03 410.642 1028.08 392.166C1018.55 421.794 1025.93 469.792 1063.47 500.811C1077.78 512.662 1097.16 519.522 1118.05 527.886C1147.07 539.51 1179.32 554.301 1205.87 589.628C1189.69 585.32 1173.03 579.85 1156.12 573.674C1140.72 568.258 1124.82 564.439 1108.64 562.278C1088.27 539.647 1048.61 519.34 1011.6 500.742C1000.53 477.386 995.364 451.67 996.555 425.851L990.675 423.868C989.621 439.262 990.494 454.728 993.273 469.906C981.24 459.627 974.493 453.154 965.924 439.936C954.027 421.703 942.13 399.481 947.691 369.169C937.617 393.852 946.757 423.047 963.782 447.685C972.262 460.473 983.089 471.54 995.689 480.299C997.002 485.359 998.639 490.33 1000.59 495.181C982.607 486.065 965.81 477.541 952.887 469.313C897.551 434.056 891.83 398.661 872.959 349.66C885.631 395.949 892.742 440.825 950.95 479.182C991.769 506.121 1049.25 527.773 1085.76 559.862C1025.55 555.942 955.44 568.728 906.576 607.564C979.918 558.882 1090.57 558.176 1156.21 582.175C1221.85 606.174 1283.84 619.894 1327.35 593.57C1358.11 574.813 1365.95 541.379 1368.53 514.576C1365.66 541.31 1357.82 566.289 1327.16 585.024Z" fill="white"/>
</g>
<defs>
<clipPath id="clip0_688_8515">
<rect width="1918.76" height="625" fill="white" transform="translate(-95)"/>
</clipPath>
</defs>
</svg>
